<svg xmlns="http://www.w3.org/2000/svg" viewBox="0 0 48 48" role="img" aria-labelledby="title">
  <title id="title">Viber</title>
  <rect width="44" height="44" x="2" y="2" rx="13" fill="#7360F2"/>
  <path fill="#fff" d="M33.9 31.2c-.5 1.5-2.3 3.1-3.8 3.5-1 .3-2.4.5-7-1.4-5.9-2.4-9.7-8.4-10-8.8-.3-.4-2.4-3.2-2.4-6.1 0-2.9 1.5-4.3 2-4.9.5-.6 1.2-.7 1.6-.7h1.2c.4 0 .9.1 1.3 1 .5 1.1 1.8 4.4 1.9 4.7.2.3.2.7 0 1.1-.2.4-.3.6-.7 1-.3.3-.7.8-1 1.1-.3.3-.6.7-.3 1.2.3.5 1.2 2 2.7 3.3 1.9 1.7 3.4 2.2 3.9 2.5.5.2.9.2 1.2-.2.4-.5 1.4-1.6 1.8-2.1.4-.5.7-.5 1.2-.3.5.2 3.2 1.5 3.8 1.8.6.3.9.4 1.1.7.1.2.1 1.3-.4 2.8Z"/>
  <path fill="#fff" d="M27.3 9.6a10.8 10.8 0 0 1 9.1 9.2c.1.5-.2.9-.7 1-.5.1-.9-.2-1-.7a9.1 9.1 0 0 0-7.7-7.7.8.8 0 1 1 .3-1.8Zm.4 4a6.8 6.8 0 0 1 4.7 5c.1.5-.2.9-.7 1-.5.1-.9-.2-1-.7a5 5 0 0 0-3.5-3.6.8.8 0 1 1 .5-1.7Zm.3 4a2.8 2.8 0 0 1 1.7 1.8.8.8 0 0 1-1.6.4 1.3 1.3 0 0 0-.7-.7.8.8 0 0 1 .6-1.5Z"/>
</svg>
