<svg xmlns="http://www.w3.org/2000/svg" viewBox="0 0 48 48" role="img" aria-labelledby="title">
  <title id="title">WhatsApp</title>
  <circle cx="24" cy="24" r="22" fill="#25D366"/>
  <path fill="#fff" d="M34.7 13.4A14.6 14.6 0 0 0 10.9 29.5L9 39l9.7-1.8a14.6 14.6 0 0 0 16-23.8Zm-10.2 22a12 12 0 0 1-6.1-1.7l-.5-.3-5.7 1.1 1.1-5.5-.4-.6a12 12 0 1 1 11.6 7Zm6.7-8.9c-.4-.2-2.2-1.1-2.5-1.2-.3-.1-.6-.2-.8.2-.2.4-.9 1.2-1.1 1.5-.2.2-.4.3-.8.1-.4-.2-1.5-.5-2.8-1.7-1-1-1.8-2.1-2-2.5-.2-.4 0-.6.2-.8l.5-.6c.2-.2.2-.4.4-.7.1-.2.1-.5 0-.7-.1-.2-.8-1.9-1.1-2.6-.3-.7-.6-.6-.8-.6h-.7c-.2 0-.7.1-1 .5-.3.4-1.3 1.3-1.3 3.1 0 1.8 1.3 3.5 1.5 3.8.2.2 2.6 4 6.2 5.5.9.4 1.6.6 2.1.8.9.3 1.7.2 2.3.1.7-.1 2.2-.9 2.5-1.7.3-.9.3-1.6.2-1.7-.1-.2-.3-.3-.7-.5Z"/>
</svg>
